<?xml version="1.0" encoding="UTF-8" standalone="no"?><!DOCTYPE svg PUBLIC "-//W3C//DTD SVG 1.1//EN" "http://www.w3.org/Graphics/SVG/1.1/DTD/svg11.dtd"><svg width="100%" height="100%" viewBox="0 0 4500 813" version="1.1" xmlns="http://www.w3.org/2000/svg" xmlns:xlink="http://www.w3.org/1999/xlink" xml:space="preserve" xmlns:serif="http://www.serif.com/" style="fill-rule:evenodd;clip-rule:evenodd;stroke-linejoin:round;stroke-miterlimit:2;"><rect id="Artboard1" x="0" y="0" width="4500" height="812.545" style="fill:none;"/><g id="Artboard11" serif:id="Artboard1"><g><path d="M429.138,250.168l-0,80.963l-111.125,-0l-0,268.287l-107.95,0l-0,-268.287l-112.184,-0l0,-80.963l331.259,0Z" style="fill:#fff;fill-rule:nonzero;"/><path d="M555.079,250.168l0,132.821l113.242,0l-0,-132.821l108.479,0l0,349.25l-108.479,0l-0,-135.466l-113.242,-0l0,135.466l-107.95,0l0,-349.25l107.95,0Z" style="fill:#fff;fill-rule:nonzero;"/><path d="M976.825,244.877c36.336,-0 67.469,7.143 93.398,21.431c25.929,14.287 45.861,34.837 59.796,61.648c13.934,26.811 20.902,59.09 20.902,96.837c-0,37.747 -6.968,70.027 -20.902,96.838c-13.935,26.811 -33.867,47.36 -59.796,61.648c-25.929,14.287 -57.062,21.431 -93.398,21.431c-36.336,-0 -67.557,-7.144 -93.662,-21.431c-26.106,-14.288 -46.214,-34.837 -60.325,-61.648c-14.112,-26.811 -21.167,-59.091 -21.167,-96.838c-0,-37.747 7.055,-70.026 21.167,-96.837c14.111,-26.811 34.219,-47.361 60.325,-61.648c26.105,-14.288 57.326,-21.431 93.662,-21.431Zm0,82.55c-42.686,-0 -64.029,32.455 -64.029,97.366c-0,64.911 21.343,97.367 64.029,97.367c42.333,-0 63.5,-32.456 63.5,-97.367c0,-64.911 -21.167,-97.366 -63.5,-97.366Z" style="fill:#fff;fill-rule:nonzero;"/><path d="M1604.42,250.168l-0,349.25l-95.25,0l-0,-139.7l2.116,-112.712l-1.058,-0l-76.729,252.412l-86.784,0l-75.67,-252.412l-1.588,-0l2.117,112.712l-0,139.7l-95.25,0l-0,-349.25l152.4,0l47.096,165.629l17.462,69.321l1.059,0l17.462,-69.321l47.096,-165.629l145.521,0Z" style="fill:#fff;fill-rule:nonzero;"/><path d="M2151.57,250.168l0,349.25l-40.217,0l0,-219.604l4.763,-92.075l-0.529,0l-114.829,311.679l-35.984,0l-114.829,-311.679l-0.529,0l4.762,92.075l0,219.604l-40.216,0l-0,-349.25l65.087,0l76.729,212.196l26.459,87.313l1.058,-0l26.988,-86.784l76.2,-212.725l65.087,0Z" style="fill:#fff;fill-rule:nonzero;"/><path d="M2342.08,329.543c27.164,0 49.742,6.262 67.733,18.786c17.992,12.523 31.927,29.721 41.804,51.593l-40.216,19.05c-5.645,-16.933 -14.199,-29.898 -25.665,-38.893c-11.465,-8.996 -26.37,-13.494 -44.714,-13.494c-26.459,-0 -47.184,8.907 -62.177,26.723c-14.993,17.815 -22.49,42.421 -22.49,73.819c-0,31.397 7.497,56.003 22.49,73.818c14.993,17.816 35.718,26.723 62.177,26.723c20.814,0 37.394,-4.762 49.741,-14.287c12.348,-9.525 20.461,-22.931 24.342,-40.217l39.158,13.758c-8.819,24.342 -22.666,43.392 -41.539,57.15c-18.874,13.759 -42.422,20.638 -70.644,20.638c-24.694,-0 -46.743,-5.468 -66.146,-16.404c-19.403,-10.936 -34.572,-26.723 -45.508,-47.361c-10.936,-20.637 -16.404,-45.243 -16.404,-73.818c-0,-28.575 5.468,-53.182 16.404,-73.819c10.936,-20.638 26.105,-36.425 45.508,-47.361c19.403,-10.936 41.452,-16.404 66.146,-16.404Z" style="fill:#fff;fill-rule:nonzero;"/><path d="M2793.98,509.989c-10.936,29.986 -28.927,53.269 -53.975,69.85c-25.047,16.581 -53.975,24.871 -86.783,24.871c-33.161,-0 -61.824,-7.32 -85.99,-21.961c-24.165,-14.64 -42.862,-35.366 -56.091,-62.177c-13.229,-26.811 -19.844,-58.737 -19.844,-95.779c0,-37.041 6.615,-68.968 19.844,-95.779c13.229,-26.811 31.926,-47.537 56.091,-62.177c24.166,-14.64 52.476,-21.96 84.932,-21.96c33.866,-0 62.177,6.967 84.931,20.902c22.754,13.934 39.599,34.131 50.535,60.589l-41.804,19.579c-7.761,-20.108 -18.962,-35.366 -33.602,-45.773c-14.64,-10.407 -33.602,-15.61 -56.885,-15.61c-23.636,0 -44.45,5.556 -62.442,16.669c-17.992,11.112 -32.015,27.075 -42.069,47.889c-10.054,20.814 -15.081,46.038 -15.081,75.671c0,43.745 10.495,78.052 31.485,102.923c20.991,24.871 49.654,37.306 85.99,37.306c23.283,0 43.568,-5.909 60.854,-17.727c17.286,-11.818 29.81,-29.545 37.571,-53.181l42.333,15.875Z" style="fill:#fff;fill-rule:nonzero;"/><path d="M2810.92,599.418l135.996,-349.25l50.27,0l135.467,349.25l-44.979,0l-37.042,-96.837l-158.221,-0l-37.041,96.837l-44.45,0Zm144.462,-261.937l-47.625,125.412l127.529,0l-47.095,-123.825l-16.405,-48.683l-1.058,-0l-15.346,47.096Z" style="fill:#fff;fill-rule:nonzero;"/><path d="M3314.68,250.168c35.631,0 64.206,9.172 85.725,27.517c21.52,18.344 32.28,43.215 32.28,74.612c-0,25.048 -7.056,45.685 -21.167,61.913c-14.111,16.228 -33.161,27.34 -57.15,33.337l99.483,151.871l-50.271,0l-95.25,-144.991l-83.608,-0l0,144.991l-42.333,0l-0,-349.25l132.291,0Zm-0.529,164.571c49.389,0 74.084,-20.814 74.084,-62.442c-0,-41.627 -24.695,-62.441 -74.084,-62.441l-89.429,-0l0,124.883l89.429,0Z" style="fill:#fff;fill-rule:nonzero;"/><path d="M3748.07,250.168l-0,39.688l-121.708,-0l-0,309.562l-42.334,0l0,-309.562l-121.708,-0l-0,-39.688l285.75,0Z" style="fill:#fff;fill-rule:nonzero;"/><path d="M3843.32,250.168l-0,152.4l189.442,0l-0,-152.4l42.333,0l-0,349.25l-42.333,0l-0,-157.162l-189.442,-0l-0,157.162l-42.333,0l-0,-349.25l42.333,0Z" style="fill:#fff;fill-rule:nonzero;"/><path d="M4408.47,250.168l-124.883,212.725l-0.001,136.525l-42.333,0l0,-136.525l-124.883,-212.725l50.271,0l67.733,119.592l28.046,49.742l28.046,-49.742l67.733,-119.592l50.271,0Z" style="fill:#fff;fill-rule:nonzero;"/></g></g></svg>